<?xml version="1.0" encoding="utf-8"?>
<svg xmlns="http://www.w3.org/2000/svg" viewBox="0 0 48 48">
  <rect width="48" height="48" fill="#ADCF91"/>
  <path d="M 8.952 33.521 L 8.952 14.645 C 8.952 14.007 9.172 13.468 9.612 13.028 C 10.052 12.588 10.591 12.368 11.229 12.368 L 13.506 12.368 L 13.506 33.521 C 13.506 34.181 13.292 34.725 12.863 35.155 C 12.434 35.583 11.889 35.798 11.229 35.798 C 10.569 35.798 10.025 35.583 9.596 35.155 C 9.167 34.725 8.952 34.181 8.952 33.521 Z M 21.096 16.46 L 11.955 16.46 L 11.955 12.368 L 21.096 12.368 C 21.69 12.368 22.18 12.555 22.565 12.929 C 22.95 13.303 23.142 13.798 23.142 14.414 C 23.142 15.008 22.95 15.497 22.565 15.883 C 22.18 16.267 21.69 16.46 21.096 16.46 Z M 20.469 26.03 L 11.988 26.03 L 11.988 21.905 L 20.469 21.905 C 21.063 21.905 21.553 22.102 21.938 22.499 C 22.323 22.895 22.515 23.39 22.515 23.984 C 22.515 24.578 22.323 25.067 21.938 25.453 C 21.553 25.837 21.063 26.03 20.469 26.03 Z" stroke="none" fill="#203A38"/>
  <path d="M 24.957 29.099 L 24.957 28.736 C 24.957 28.12 25.183 27.586 25.634 27.135 C 26.085 26.684 26.618 26.458 27.234 26.458 C 27.85 26.458 28.356 26.684 28.752 27.135 C 29.148 27.586 29.346 28.12 29.346 28.736 L 29.346 29 C 29.346 29.572 29.451 30.05 29.66 30.436 C 29.869 30.82 30.171 31.117 30.567 31.326 C 30.963 31.535 31.414 31.639 31.92 31.639 C 32.822 31.639 33.477 31.348 33.884 30.766 C 34.291 30.182 34.494 29.406 34.494 28.438 L 34.494 14.315 C 34.494 13.677 34.714 13.138 35.154 12.698 C 35.594 12.258 36.133 12.038 36.771 12.038 C 37.387 12.038 37.921 12.258 38.372 12.698 C 38.823 13.138 39.048 13.677 39.048 14.315 L 39.048 28.24 C 39.048 29.825 38.773 31.194 38.223 32.35 C 37.673 33.504 36.887 34.395 35.864 35.023 C 34.841 35.649 33.592 35.962 32.118 35.962 C 30.996 35.962 29.995 35.786 29.115 35.434 C 28.235 35.083 27.487 34.587 26.871 33.95 C 26.255 33.312 25.782 32.58 25.452 31.756 C 25.122 30.93 24.957 30.045 24.957 29.099 Z" stroke="none" fill="#203A38"/>
</svg>