<svg width="217" height="15" xmlns="http://www.w3.org/2000/svg">
<path id="main"
  d="M78.09 2.03h-9.22v3.99h6.1a.9.9 0 0 1 .65.26 1.07 1.07 0 0 1 0 .01.9.9 0 0 1 .28.65 1.1 1.1 0 0 1 0 .01.9.9 0 0 1-.27.66 1.07 1.07 0 0 1 0 0 .9.9 0 0 1-.66.28 1.1 1.1 0 0 1 0 0h-6.1v4.77h9.6a.9.9 0 0 1 .66.26 1.07 1.07 0 0 1 .01.01.9.9 0 0 1 .27.65 1.1 1.1 0 0 1 0 .01.9.9 0 0 1-.26.66 1.07 1.07 0 0 1 0 0 .9.9 0 0 1-.66.28 1.1 1.1 0 0 1-.01 0H67.93a.84.84 0 0 1-.42-.11 1.23 1.23 0 0 1-.22-.16.94.94 0 0 1-.21-.28.86.86 0 0 1-.09-.39V1.1a.84.84 0 0 1 .12-.41 1.23 1.23 0 0 1 .16-.22.94.94 0 0 1 .28-.22.86.86 0 0 1 .38-.08h10.16a.9.9 0 0 1 .65.26 1.07 1.07 0 0 1 .01.01.9.9 0 0 1 .27.65 1.1 1.1 0 0 1 0 .01.9.9 0 0 1-.26.66 1.07 1.07 0 0 1-.01 0 .9.9 0 0 1-.65.28 1.1 1.1 0 0 1-.01 0ZM94.74 4.2a.3.3 0 0 0 .12-.05.89.89 0 0 0 .5-.52 1.26 1.26 0 0 0 .07-.36.68.68 0 0 0 0-.07.84.84 0 0 0-.02-.1 7.06 7.06 0 0 0-.02-.08 5.97 5.97 0 0 0-.02-.08 3.08 3.08 0 0 0-.02-.03l-.13-.25a10.42 10.42 0 0 0-.07-.12 1.74 1.74 0 0 0-.1-.14q-.11-.15-.3-.36a11.07 11.07 0 0 0-.2-.22 5.1 5.1 0 0 0-.07-.06 5.46 5.46 0 0 0-1-.8 4.14 4.14 0 0 0-.4-.21q-.25-.12-.56-.24a9.7 9.7 0 0 0-.66-.2 7.28 7.28 0 0 0-.93-.2A9.02 9.02 0 0 0 89.6 0a10.97 10.97 0 0 0-.78.03 9.24 9.24 0 0 0-1.98.35 4.91 4.91 0 0 0-2.17 1.3 3.08 3.08 0 0 0-.9 2.23q0 .74.35 1.36a2.83 2.83 0 0 0 .04.08q.34.58 1.02 1.1.7.54 1.9.93a10.46 10.46 0 0 0 .26.08q1.1.33 2.53.5 2.35.3 3.34 1.03a1.6 1.6 0 0 1 .72 1.32q0 .96-1.09 1.73a2.92 2.92 0 0 1 0 0q-1.1.77-3.24.77a8.3 8.3 0 0 1-.38 0 7.05 7.05 0 0 1-.91-.1 7.77 7.77 0 0 1-.21-.05q-.23-.04-.43-.1a4.1 4.1 0 0 1-.39-.13q-.42-.16-.8-.39-.38-.22-.6-.4a3.56 3.56 0 0 1-.42-.42 7.03 7.03 0 0 1-.07-.08q-.14-.16-.18-.23a1.45 1.45 0 0 0-.1-.17.77.77 0 0 0-.49-.39 1.16 1.16 0 0 0-.31-.04.85.85 0 0 0-.23.03q-.1.03-.2.09-.5.27-.5.82a1.17 1.17 0 0 0 .01.06.97.97 0 0 0 0 .09.61.61 0 0 0 .02.07.81.81 0 0 0 .03.07.78.78 0 0 0 .02.07.6.6 0 0 0 .05.07 1.82 1.82 0 0 0 0 0q.05.11.14.25a6.08 6.08 0 0 0 .09.14q.12.18.45.5a13.17 13.17 0 0 0 .23.23 7.13 7.13 0 0 0 1.17.9q.63.38 1.7.69a7.7 7.7 0 0 0 .7.15 8.87 8.87 0 0 0 1.6.15 11.74 11.74 0 0 0 .23 0q2.55-.05 4.23-1.21a5.08 5.08 0 0 0 .5-.4 3.57 3.57 0 0 0 1.26-2.77q0-.76-.32-1.42a3.39 3.39 0 0 0-.41-.64 4.38 4.38 0 0 0-.58-.6q-.66-.56-1.79-.97a8.4 8.4 0 0 0-.07-.03q-.57-.2-1.22-.34a13.88 13.88 0 0 0-1.31-.22 20.56 20.56 0 0 1-.33-.04q-.49-.06-.91-.14a11.5 11.5 0 0 1-.83-.19 13 13 0 0 1-.28-.07q-.43-.13-.73-.25a3.37 3.37 0 0 1-.31-.15 3.6 3.6 0 0 1-.06-.03l-.34-.21a2.14 2.14 0 0 1-.3-.28 3.2 3.2 0 0 1-.1-.11q-.18-.22-.22-.36a1.3 1.3 0 0 1-.05-.35 1.23 1.23 0 0 1 .2-.68q.14-.21.37-.41a3.26 3.26 0 0 1 .47-.33 3.71 3.71 0 0 1 .84-.36q.44-.13.98-.2a9.23 9.23 0 0 1 1.09-.05 8.44 8.44 0 0 1 .45 0 6.95 6.95 0 0 1 .79.1q.36.05.65.13a3.86 3.86 0 0 1 .32.1q.39.15.72.36a8.48 8.48 0 0 1 .01 0q.33.2.5.36.2.16.34.35l.17.26a1 1 0 0 0 .01.01 1.11 1.11 0 0 0 .06.1 1.03 1.03 0 0 0 .06.1 1.2 1.2 0 0 0 .16.2 1.05 1.05 0 0 0 .03.03.91.91 0 0 0 .27.17.89.89 0 0 0 .34.07l.12-.01a4.95 4.95 0 0 1 .06-.01 6.2 6.2 0 0 1 .07-.01Zm121.19 0a.3.3 0 0 0 .13-.05.89.89 0 0 0 .5-.52 1.26 1.26 0 0 0 .06-.36.68.68 0 0 0 0-.07.84.84 0 0 0-.02-.1 7.06 7.06 0 0 0-.02-.08 5.97 5.97 0 0 0-.02-.08 3.08 3.08 0 0 0-.02-.03l-.13-.25a10.42 10.42 0 0 0-.07-.12 1.74 1.74 0 0 0-.1-.14q-.11-.15-.3-.36a11.07 11.07 0 0 0-.2-.22 5.1 5.1 0 0 0-.06-.06 5.46 5.46 0 0 0-1-.8 4.14 4.14 0 0 0-.4-.21L213.7.5a9.7 9.7 0 0 0-.65-.2 7.28 7.28 0 0 0-.94-.2 9.02 9.02 0 0 0-1.32-.1 10.97 10.97 0 0 0-.77.03 9.24 9.24 0 0 0-2 .35 4.91 4.91 0 0 0-2.16 1.3 3.08 3.08 0 0 0-.89 2.23q0 .74.34 1.36a2.83 2.83 0 0 0 .04.08q.34.58 1.02 1.1.71.54 1.9.93a10.46 10.46 0 0 0 .26.08q1.1.33 2.53.5 2.35.3 3.34 1.03a1.6 1.6 0 0 1 .73 1.32q0 .96-1.1 1.73a2.92 2.92 0 0 1 0 0q-1.1.77-3.24.77a8.3 8.3 0 0 1-.38 0 7.05 7.05 0 0 1-.9-.1 7.77 7.77 0 0 1-.22-.05q-.23-.04-.43-.1a4.1 4.1 0 0 1-.38-.13q-.42-.16-.8-.39-.38-.22-.61-.4a3.56 3.56 0 0 1-.42-.42 7.03 7.03 0 0 1-.07-.08l-.17-.23a1.45 1.45 0 0 0-.11-.17.77.77 0 0 0-.49-.39 1.16 1.16 0 0 0-.31-.04.85.85 0 0 0-.23.03q-.1.03-.2.09-.49.27-.49.82a1.17 1.17 0 0 0 0 .06.97.97 0 0 0 .01.09.61.61 0 0 0 .01.07.81.81 0 0 0 .03.07.78.78 0 0 0 .03.07.6.6 0 0 0 .04.07 1.82 1.82 0 0 0 0 0q.05.11.14.25a6.08 6.08 0 0 0 .1.14q.11.18.44.5a13.17 13.17 0 0 0 .24.23 7.13 7.13 0 0 0 1.16.9q.63.38 1.7.69a7.7 7.7 0 0 0 .7.15 8.87 8.87 0 0 0 1.61.15 11.74 11.74 0 0 0 .22 0q2.55-.05 4.23-1.21a5.08 5.08 0 0 0 .51-.4 3.57 3.57 0 0 0 1.25-2.77q0-.76-.32-1.42a3.39 3.39 0 0 0-.4-.64 4.38 4.38 0 0 0-.59-.6q-.66-.56-1.78-.97a8.4 8.4 0 0 0-.08-.03q-.56-.2-1.22-.34a13.88 13.88 0 0 0-1.31-.22 20.56 20.56 0 0 1-.33-.04q-.48-.06-.91-.14a11.5 11.5 0 0 1-.83-.19 13 13 0 0 1-.28-.07q-.43-.13-.73-.25a3.37 3.37 0 0 1-.31-.15 3.6 3.6 0 0 1-.05-.03q-.2-.1-.35-.21a2.14 2.14 0 0 1-.3-.28 3.2 3.2 0 0 1-.1-.11q-.18-.22-.22-.36a1.3 1.3 0 0 1-.04-.35 1.23 1.23 0 0 1 .2-.68q.14-.21.37-.41a3.26 3.26 0 0 1 .46-.33 3.71 3.71 0 0 1 .84-.36q.44-.13.98-.2a9.23 9.23 0 0 1 1.1-.05 8.44 8.44 0 0 1 .44 0 6.95 6.95 0 0 1 .8.1q.35.05.64.13a3.86 3.86 0 0 1 .32.1q.39.15.72.36a8.48 8.48 0 0 1 .02 0q.32.2.5.36.18.16.33.35l.18.26a1 1 0 0 0 0 .01 1.11 1.11 0 0 0 .06.1 1.03 1.03 0 0 0 .06.1 1.2 1.2 0 0 0 .16.2 1.05 1.05 0 0 0 .03.03.91.91 0 0 0 .27.17.89.89 0 0 0 .34.07l.12-.01a4.95 4.95 0 0 1 .06-.01 6.2 6.2 0 0 1 .07-.01Zm-50.57 5.76a.9.9 0 0 0-.65-.26.88.88 0 0 0-.62.24q-.26.25-.32.6-.06.16-.2.37a3.43 3.43 0 0 1-.14.2q-.27.33-.72.74a2.67 2.67 0 0 1-.14.12q-.41.33-1.05.57a4.16 4.16 0 0 1-.4.13 4.6 4.6 0 0 1-1.2.15 4.74 4.74 0 0 1-2.06-.45 5.22 5.22 0 0 1-1.54-1.14q-1.51-1.59-1.51-3.88a5.42 5.42 0 0 1 1.5-3.87 6.26 6.26 0 0 1 .12-.11 4.78 4.78 0 0 1 3.5-1.48 5.66 5.66 0 0 1 .36 0 4.8 4.8 0 0 1 1.02.18 6 6 0 0 1 .36.12q.2.06.35.14a2.47 2.47 0 0 1 .3.16q.36.23.65.55a10.23 10.23 0 0 1 .1.1l.22.27a.92.92 0 0 1 .05.07l.14.22q.11.26.35.4a1.13 1.13 0 0 0 .03.01.95.95 0 0 0 .46.12l.2-.02a1.05 1.05 0 0 0 0 0 1.12 1.12 0 0 0 .19-.06 1.21 1.21 0 0 0 .1-.06q.28-.16.38-.43a1.03 1.03 0 0 0 .06-.37q0-.2-.07-.37a.43.43 0 0 0 0 0l-.07-.15a.96.96 0 0 0-.01-.01l-.18-.27a11.26 11.26 0 0 0-.07-.1 12.68 12.68 0 0 0-.22-.3l-.22-.26a5.28 5.28 0 0 0-.2-.19q-.25-.24-.54-.47a4.38 4.38 0 0 0-.32-.22 5.98 5.98 0 0 0-.37-.22 5.88 5.88 0 0 0-.85-.37 5.57 5.57 0 0 0-.48-.14 7.4 7.4 0 0 0-.54-.11 6.4 6.4 0 0 0-.28-.04 7.23 7.23 0 0 0-.9-.06 6.7 6.7 0 0 0-2.55.47 6.84 6.84 0 0 0-2.4 1.69 7.28 7.28 0 0 0-2.05 5.18 7.28 7.28 0 0 0 2.04 5.19 8.19 8.19 0 0 0 .16.17 6.53 6.53 0 0 0 4.8 1.99 7.5 7.5 0 0 0 .32 0 6.46 6.46 0 0 0 2.14-.46q.58-.23 1.04-.52a4.4 4.4 0 0 0 .78-.61q.34-.34.6-.67a5.57 5.57 0 0 0 .45-.66q.24-.4.33-.75a1.56 1.56 0 0 0 .06-.4 1.1 1.1 0 0 0 0 0 .9.9 0 0 0-.28-.66 1.07 1.07 0 0 0 0 0ZM0 13.6V1.1Q0 .7.3.43A1.21 1.21 0 0 1 .53.27a.83.83 0 0 1 .4-.11h9.77a.9.9 0 0 1 .66.26 1.07 1.07 0 0 1 0 .01.9.9 0 0 1 .28.65 1.1 1.1 0 0 1 0 .01.9.9 0 0 1-.26.66 1.07 1.07 0 0 1-.01 0 .9.9 0 0 1-.65.28 1.1 1.1 0 0 1-.02 0H1.88v3.99h6.28a.9.9 0 0 1 .66.26 1.07 1.07 0 0 1 0 .01.9.9 0 0 1 .28.65 1.1 1.1 0 0 1 0 .01.9.9 0 0 1-.26.66 1.07 1.07 0 0 1-.01 0 .9.9 0 0 1-.65.28 1.1 1.1 0 0 1-.02 0H1.87v5.7a.9.9 0 0 1-.26.66 1.07 1.07 0 0 1 0 0 .9.9 0 0 1-.66.28 1.1 1.1 0 0 1-.01 0 .9.9 0 0 1-.66-.26 1.07 1.07 0 0 1 0-.01.9.9 0 0 1-.28-.65 1.1 1.1 0 0 1 0-.02Zm39.92-5.62H34.5v5.62a.9.9 0 0 1-.26.66 1.07 1.07 0 0 1-.01 0 .9.9 0 0 1-.65.28 1.1 1.1 0 0 1-.02 0 .9.9 0 0 1-.65-.26 1.07 1.07 0 0 1 0-.01.9.9 0 0 1-.28-.65 1.1 1.1 0 0 1 0-.02V1.1q0-.39.3-.66a1.21 1.21 0 0 1 .23-.16.83.83 0 0 1 .4-.11H40a8.76 8.76 0 0 1 1.47.12 7.81 7.81 0 0 1 .39.07q.87.2 1.66.63a3.26 3.26 0 0 1 1.25 1.22 3.32 3.32 0 0 1 .41 1.19 4.35 4.35 0 0 1 .05.67 4.33 4.33 0 0 1-.11 1.04 2.95 2.95 0 0 1-.8 1.42 4.37 4.37 0 0 1-1.41.93 5.9 5.9 0 0 1-.98.3l2.9 5.4a.93.93 0 0 1 .11.44 1.02 1.02 0 0 1-.06.36q-.1.3-.43.46a.93.93 0 0 1-.45.12 1.02 1.02 0 0 1-.35-.05q-.3-.12-.47-.44l-3.26-6.07Zm17.19 0h-5.43v5.62a.9.9 0 0 1-.27.66 1.07 1.07 0 0 1 0 0 .9.9 0 0 1-.66.28 1.1 1.1 0 0 1 0 0 .9.9 0 0 1-.66-.26 1.07 1.07 0 0 1-.01-.01.9.9 0 0 1-.27-.65 1.1 1.1 0 0 1 0-.02V1.1q0-.39.3-.66a1.21 1.21 0 0 1 .23-.16.83.83 0 0 1 .4-.11h6.45a8.76 8.76 0 0 1 1.46.12 7.81 7.81 0 0 1 .4.07q.87.2 1.65.63a3.26 3.26 0 0 1 1.25 1.22 3.32 3.32 0 0 1 .42 1.19 4.35 4.35 0 0 1 .05.67 4.33 4.33 0 0 1-.12 1.04 2.95 2.95 0 0 1-.79 1.42 4.37 4.37 0 0 1-1.42.93 5.9 5.9 0 0 1-.97.3l2.9 5.4a.93.93 0 0 1 .1.44 1.02 1.02 0 0 1-.05.36q-.1.3-.43.46a.93.93 0 0 1-.45.12 1.02 1.02 0 0 1-.35-.05q-.3-.12-.47-.44l-3.26-6.07ZM100.16.16h12.1a.9.9 0 0 1 .66.26 1.07 1.07 0 0 1 .01.01.9.9 0 0 1 .27.65 1.1 1.1 0 0 1 0 .01.9.9 0 0 1-.26.66 1.07 1.07 0 0 1-.01 0 .9.9 0 0 1-.65.28 1.1 1.1 0 0 1-.01 0h-5.12V13.6a.9.9 0 0 1-.27.66 1.07 1.07 0 0 1 0 0 .9.9 0 0 1-.66.28 1.1 1.1 0 0 1 0 0 .9.9 0 0 1-.66-.26 1.07 1.07 0 0 1-.01-.01.9.9 0 0 1-.28-.65 1.1 1.1 0 0 1 0-.02V2.03h-5.11a.9.9 0 0 1-.66-.26 1.07 1.07 0 0 1 0-.01.9.9 0 0 1-.28-.65 1.1 1.1 0 0 1 0-.02.9.9 0 0 1 .26-.65 1.07 1.07 0 0 1 .01-.01.9.9 0 0 1 .65-.27 1.1 1.1 0 0 1 .02 0Zm36.25 13.06 5.37-12.5a.95.95 0 0 1 .36-.4 1.03 1.03 0 0 1 .24-.12.84.84 0 0 1 .26-.04H144a.9.9 0 0 1 .47.13 1.1 1.1 0 0 1 .05.03 1.05 1.05 0 0 1 .2.17.82.82 0 0 1 .14.23l5.37 12.5q.08.18.08.37a.9.9 0 0 1-.15.51.98.98 0 0 1-.41.35q-.18.08-.38.08a.9.9 0 0 1-.5-.15.98.98 0 0 1-.35-.42l-.96-2.24h-8.48l-.96 2.24a.98.98 0 0 1-.35.42.9.9 0 0 1-.5.15 1.78 1.78 0 0 1-.18-.02l-.16-.04a1.01 1.01 0 0 1-.03-.02q-.18-.07-.3-.21a1 1 0 0 1-.2-.3.89.89 0 0 1-.07-.35q0-.2.08-.37Zm59.35 1.31h-6.64a.84.84 0 0 1-.42-.11 1.23 1.23 0 0 1-.21-.16.94.94 0 0 1-.22-.28.86.86 0 0 1-.09-.39V1.1a.84.84 0 0 1 .12-.41 1.23 1.23 0 0 1 .16-.22.94.94 0 0 1 .28-.22.86.86 0 0 1 .38-.08h6.25a6.26 6.26 0 0 1 1.71.22 5 5 0 0 1 1.73.87q1.4 1.1 1.4 2.77a3.23 3.23 0 0 1-.1.82q-.11.42-.3.78a3.67 3.67 0 0 1-.47.67q-.28.31-.63.57a4.53 4.53 0 0 1 1.23 1.25 4.36 4.36 0 0 1 .17.28 3.96 3.96 0 0 1 .46 1.4 3.76 3.76 0 0 1 .04.48q0 1.68-1.35 2.97a4.58 4.58 0 0 1-2.57 1.23 6.35 6.35 0 0 1-.93.06Zm-70.84-5.47v1.25a2.3 2.3 0 0 0 .7 1.67 3.1 3.1 0 0 0 .1.1 2.76 2.76 0 0 0 1.83.73 3.6 3.6 0 0 0 .14 0q1.14 0 1.96-.86a2.93 2.93 0 0 0 .82-2.07 3.78 3.78 0 0 0 0-.04V1.1a.9.9 0 0 1 .26-.65 1.07 1.07 0 0 1 .01-.01.9.9 0 0 1 .65-.27 1.1 1.1 0 0 1 .02 0 .9.9 0 0 1 .65.26 1.07 1.07 0 0 1 .01.01.9.9 0 0 1 .27.65 1.1 1.1 0 0 1 0 .01v8.75a4.78 4.78 0 0 1-1.35 3.42 4.54 4.54 0 0 1-1.66 1.13 4.5 4.5 0 0 1-1.64.3q-1.89 0-3.27-1.27a4.26 4.26 0 0 1-1.05-1.46 4.15 4.15 0 0 1-.32-1.65V9.06a.9.9 0 0 1 .26-.65 1.07 1.07 0 0 1 .01-.01.9.9 0 0 1 .65-.27 1.1 1.1 0 0 1 .01 0 .9.9 0 0 1 .66.26 1.07 1.07 0 0 1 0 0 .9.9 0 0 1 .28.66 1.1 1.1 0 0 1 0 .01ZM28.05 7.34A7.28 7.28 0 0 0 26 2.16a8.19 8.19 0 0 0-.17-.17A6.53 6.53 0 0 0 21.05 0a6.7 6.7 0 0 0-2.53.47 6.84 6.84 0 0 0-2.42 1.69 7.28 7.28 0 0 0-2.04 5.18 7.28 7.28 0 0 0 2.04 5.19 8.19 8.19 0 0 0 .16.17 6.53 6.53 0 0 0 4.8 1.99 6.7 6.7 0 0 0 2.53-.48 6.84 6.84 0 0 0 2.42-1.68 7.28 7.28 0 0 0 2.04-5.19Zm155.56 0a7.28 7.28 0 0 0-2.04-5.18 8.19 8.19 0 0 0-.16-.17A6.53 6.53 0 0 0 176.62 0a6.7 6.7 0 0 0-2.54.47 6.84 6.84 0 0 0-2.41 1.69 7.28 7.28 0 0 0-2.04 5.18 7.28 7.28 0 0 0 2.04 5.19 8.19 8.19 0 0 0 .16.17 6.53 6.53 0 0 0 4.8 1.99 6.7 6.7 0 0 0 2.53-.48 6.84 6.84 0 0 0 2.41-1.68 7.28 7.28 0 0 0 2.04-5.19ZM24.66 11.22a5.42 5.42 0 0 0 1.51-3.88q0-2.28-1.51-3.87a5.22 5.22 0 0 0-1.55-1.15 4.74 4.74 0 0 0-2.05-.44 4.78 4.78 0 0 0-3.5 1.48 6.26 6.26 0 0 0-.1.1 5.42 5.42 0 0 0-1.52 3.88q0 2.29 1.51 3.88A5.22 5.22 0 0 0 19 12.36a4.74 4.74 0 0 0 2.05.45 4.78 4.78 0 0 0 3.5-1.48 6.26 6.26 0 0 0 .1-.1Zm155.56 0a5.42 5.42 0 0 0 1.52-3.88q0-2.28-1.52-3.87a5.22 5.22 0 0 0-1.54-1.15 4.74 4.74 0 0 0-2.06-.44 4.78 4.78 0 0 0-3.5 1.48 6.26 6.26 0 0 0-.1.1 5.42 5.42 0 0 0-1.52 3.88q0 2.29 1.52 3.88a5.22 5.22 0 0 0 1.54 1.14 4.74 4.74 0 0 0 2.06.45 4.78 4.78 0 0 0 3.5-1.48 6.26 6.26 0 0 0 .1-.1Zm15.15-3.33h-5.31v4.77h5.7q1.08 0 1.79-.44a2.34 2.34 0 0 0 .4-.32 2.97 2.97 0 0 0 .46-.55 2.01 2.01 0 0 0 .32-1.08 2.02 2.02 0 0 0-.35-1.12 3.01 3.01 0 0 0-.42-.5 2.5 2.5 0 0 0-1.08-.62q-.5-.14-1.12-.14h-.39Zm-52.1-5.86-3.37 7.81h6.84l-3.36-7.8h-.12Zm-108.78 0V6.1H40a8.3 8.3 0 0 0 1.14-.07q1.3-.18 1.83-.81a1.7 1.7 0 0 0 .39-1.15 1.69 1.69 0 0 0-1-1.6q-.74-.38-2.04-.42a10.32 10.32 0 0 0-.32 0h-5.5Zm17.19 0V6.1h5.5a8.3 8.3 0 0 0 1.15-.07q1.3-.18 1.83-.81a1.7 1.7 0 0 0 .39-1.15 1.69 1.69 0 0 0-1-1.6q-.75-.38-2.04-.42a10.32 10.32 0 0 0-.32 0h-5.51Zm138.38 0v3.99h5.31l.3-.01a3.83 3.83 0 0 0 .25-.03 3.5 3.5 0 0 0 .04 0l.27-.04a1.72 1.72 0 0 0 .26-.06 11.34 11.34 0 0 0 .19-.06 10.16 10.16 0 0 0 .06-.02 3.21 3.21 0 0 0 .55-.23q.39-.22.64-.52.41-.5.41-1.03 0-.66-.63-1.23a3.17 3.17 0 0 0-.15-.13 2.62 2.62 0 0 0-.89-.46q-.56-.17-1.3-.17h-5.31Z"
  fill-rule="evenodd" fill="currentColor" />
</svg>